<?xml version="1.0" encoding="utf-8"?>
<!-- Generator: Adobe Illustrator 23.0.5, SVG Export Plug-In . SVG Version: 6.00 Build 0)  -->
<svg version="1.1" id="Layer_1" xmlns="http://www.w3.org/2000/svg" xmlns:xlink="http://www.w3.org/1999/xlink" x="0px" y="0px"
	 viewBox="0 0 216 192" style="enable-background:new 0 0 216 192;" xml:space="preserve">
<style type="text/css">
	.st0{fill-rule:evenodd;clip-rule:evenodd;fill:#FFFFFF;}
	.st1{clip-path:url(#SVGID_2_);}
	.st2{fill:#FFFFFF;}
</style>
<title>armour-colour</title>
<g>
	<g id="Layer_18">
		<path class="st0" d="M159.5,95.9c0,50.7-77.1,91.9-77.1,91.9S5.3,146.6,5.3,95.9c0-21.4,12.9-68.8,12.9-68.8s23.1,2.2,36.9-2.2
			S82.4,4,82.4,4c7.5,8.1,16,15.1,25.4,20.9c14.8,8.8,39.7-1.1,39.7-1.1S159.5,71.9,159.5,95.9z"/>
		<g>
			<g>
				<defs>
					<path id="SVGID_1_" d="M159.5,95.9c0,50.7-77.1,91.9-77.1,91.9S5.3,146.6,5.3,95.9c0-21.4,12.9-68.8,12.9-68.8
						s23.1,2.2,36.9-2.2S82.4,4,82.4,4c7.5,8.1,16,15.1,25.4,20.9c14.8,8.8,39.7-1.1,39.7-1.1S159.5,71.9,159.5,95.9z"/>
				</defs>
				<use xlink:href="#SVGID_1_"  style="overflow:visible;fill:#FFFFFF;"/>
				<clipPath id="SVGID_2_">
					<use xlink:href="#SVGID_1_"  style="overflow:visible;"/>
				</clipPath>
				<g class="st1">
					<polygon class="st2" points="0,166 192,17 216,196 7,193 					"/>
				</g>
			</g>
		</g>
	</g>
</g>
</svg>
