<?xml version="1.0" encoding="utf-8"?>
<!-- Generator: Adobe Illustrator 23.0.5, SVG Export Plug-In . SVG Version: 6.00 Build 0)  -->
<svg version="1.1" id="Layer_1" xmlns="http://www.w3.org/2000/svg" xmlns:xlink="http://www.w3.org/1999/xlink" x="0px" y="0px"
	 viewBox="0 0 212.2 201.5" style="enable-background:new 0 0 212.2 201.5;" xml:space="preserve">
<style type="text/css">
	.st0{fill:#FFFFFF;}
	.st1{clip-path:url(#SVGID_2_);}
	.st2{opacity:0.5;fill:#FFFFFF;enable-background:new    ;}
	.st3{clip-path:url(#SVGID_4_);}
</style>
<title>health-colour</title>
<g>
	<g id="Layer_17">
		<path class="st0" d="M115.9,100.6c-1.1,0-2-0.5-2.6-1.4l-5.8-8.3l-5.8,8.3c-1,1.5-3,1.9-4.5,0.8c-0.3-0.2-0.5-0.4-0.7-0.7
			l-2.1-2.7L86.3,142c-0.3,1.5-1.6,2.6-3.1,2.7h-0.1c-1.5,0-2.8-1-3.2-2.4L60,65.2L48.6,96.6c-0.6,1.7-2.5,2.6-4.2,1.9
			c-0.7-0.2-1.3-0.7-1.6-1.3l-5-7.9l-10.5,5.3c-1.4,0.7-3.2,0.3-4.1-1l-2.3-3.3L13,99.2c0.2,0.2,0.3,0.4,0.5,0.6l0,0l78.6,82.5
			l78.2-81.3L115.9,100.6z"/>
		<path class="st0" d="M18.7,83c1.2-1.3,3.3-1.5,4.6-0.3c0.2,0.2,0.3,0.3,0.5,0.5l3.1,4.3l10.7-5.3c1.5-0.7,3.3-0.2,4.2,1.2l3,4.8
			l12.8-35.1c0.6-1.7,2.5-2.6,4.2-1.9c1,0.4,1.8,1.2,2,2.2l18.8,72.8l6.8-37.9c0.3-1.8,2-2.9,3.8-2.6c0.8,0.1,1.5,0.6,2,1.2l3.9,5
			l5.9-8.6c1-1.5,3.1-1.8,4.5-0.8c0.3,0.2,0.6,0.5,0.8,0.8l7.5,10.8l58.3,0.4c15.5-21.2,10.8-51-10.4-66.5s-51-10.8-66.5,10.4
			c-2.7,3.8-4.9,7.9-6.5,12.3C84,26.2,56.9,13,32,21.5S-6,57.2,2.6,82c1.5,4.3,3.6,8.4,6.2,12.1L18.7,83z"/>
		<g>
			<g>
				<defs>
					<path id="SVGID_1_" d="M18.7,83.2c1.2-1.3,3.3-1.5,4.6-0.3c0.2,0.2,0.3,0.3,0.5,0.5l3.1,4.3l10.7-5.3c1.5-0.7,3.3-0.2,4.2,1.2
						l3,4.8l12.8-35c0.6-1.7,2.5-2.6,4.2-2c1,0.4,1.8,1.2,2.1,2.3l18.8,72.8l6.8-37.9c0.2-1.3,1.2-2.3,2.4-2.6
						c1.2-0.3,2.6,0.2,3.4,1.2l3.9,4.9l5.9-8.6c1-1.5,3-1.9,4.5-0.8c0.3,0.2,0.6,0.5,0.8,0.8l7.5,10.8l58.3,0.4
						c15.5-21.2,10.8-51-10.4-66.5s-51-10.8-66.5,10.4c-2.8,3.8-5,8-6.5,12.5c-8.9-24.8-36-37.9-60.8-29.3S-6,57.6,2.6,82.4
						c1.5,4.2,3.5,8.3,6.1,11.9L18.7,83.2z"/>
				</defs>
				<use xlink:href="#SVGID_1_"  style="overflow:visible;fill:#FFFFFF;"/>
				<clipPath id="SVGID_2_">
					<use xlink:href="#SVGID_1_"  style="overflow:visible;"/>
				</clipPath>
				<g class="st1">
					<path class="st2" d="M21.6,146.9l70,73.6l109.3-113.2c0,0,15.4-24.4,10.3-50.1c-3-15.2-15.4-25.7-15.4-25.7L21.6,146.9z"/>
				</g>
			</g>
		</g>
		<g>
			<g>
				<defs>
					<path id="SVGID_3_" d="M115.9,100.9c-1.1,0-2-0.5-2.6-1.4l-5.8-9.3l-5.8,9.3c-1,1.5-3,1.9-4.5,0.8c-0.3-0.2-0.5-0.4-0.7-0.7
						l-2.1-2.7l-8.1,45.4c-0.3,1.5-1.6,2.6-3.1,2.7h-0.1c-1.5,0-2.8-1-3.1-2.4L60.1,65.4L48.6,96.8c-0.6,1.7-2.5,2.6-4.2,1.9
						c-0.7-0.2-1.3-0.7-1.6-1.3l-5-7.9l-10.5,5.3c-1.4,0.7-3.2,0.3-4.1-1l-2.3-3.3l-7.9,9c0.2,0.2,0.3,0.4,0.5,0.6l0,0l78.7,82.6
						l78.1-81.3L115.9,100.9z"/>
				</defs>
				<use xlink:href="#SVGID_3_"  style="overflow:visible;fill:#FFFFFF;"/>
				<clipPath id="SVGID_4_">
					<use xlink:href="#SVGID_3_"  style="overflow:visible;"/>
				</clipPath>
				<g class="st3">
					<path class="st2" d="M21.6,146l70,73.6l109.3-113.1c0,0,15.4-24.4,10.3-50.1c-3-15.2-15.4-25.7-15.4-25.7L21.6,146z"/>
				</g>
			</g>
		</g>
	</g>
</g>
</svg>
