<?xml version="1.0" encoding="utf-8"?>
<!-- Generator: Adobe Illustrator 23.0.5, SVG Export Plug-In . SVG Version: 6.00 Build 0)  -->
<svg version="1.1" id="Layer_1" xmlns="http://www.w3.org/2000/svg" xmlns:xlink="http://www.w3.org/1999/xlink" x="0px" y="0px"
	 viewBox="0 0 227 188" style="enable-background:new 0 0 227 188;" xml:space="preserve">
<style type="text/css">
	.st0{fill:#FFFFFF;}
	.st1{clip-path:url(#SVGID_2_);}
	.st2{clip-path:url(#SVGID_4_);}
	.st3{clip-path:url(#SVGID_6_);}
</style>
<title>hunger-colour</title>
<g>
	<g id="Layer_20">
		<path class="st0" d="M31.1,131.6c0,0.4,0,0.7,0.1,1.1c2,29.5,37.6,39.3,81,39.3s78.6-9.8,80.7-39.3c0.1-0.4,0.1-0.7,0.1-1.1l0,0
			c0-0.2,0-0.3,0-0.5c0-0.4,0-0.8,0-1.1h-0.2c-1.1-4.3-6.6-7.6-13.2-7.6H44.5c-6.5,0-12,3.3-13.2,7.6h-0.2c0,0.4,0,0.8,0,1.1
			C31.1,131.3,31.1,131.4,31.1,131.6z"/>
		<path class="st0" d="M181,97.5H43.1c-3.8-0.4-6.7-3.8-6.3-7.6c0.3-3.4,3-6,6.3-6.3H181c3.8,0.4,6.7,3.8,6.3,7.6
			C187,94.6,184.4,97.2,181,97.5z"/>
		<path class="st0" d="M191.9,69.5c0-0.4,0-0.7-0.1-1.1c-2.1-29.5-37.5-53-80.8-53s-78.8,23.5-80.8,53C30,68.8,30,69.2,30,69.5
			c0,0.2,0,0.3,0,0.5c0,0.4,0,0.8,0,1.1h0.2c1.1,4.3,6.6,7.6,13.2,7.6h135.1c6.5,0,12-3.3,13.1-7.6h0.2c0-0.4,0-0.8,0-1.1
			C191.9,69.8,191.9,69.7,191.9,69.5z M62.5,66.8c-1.4,0.9-4-0.8-5.9-3.7s-2.3-6-1-6.8s4,0.8,5.9,3.7S63.9,66,62.5,66.8z M69.1,39.7
			c-3.9,0-7.1-1.5-7.1-3.3s3.2-3.4,7.1-3.4s7.1,1.5,7.1,3.3S73.1,39.7,69.1,39.7z M101.3,52.6C98.1,54,95,54,94.4,52.5
			s1.4-3.8,4.5-5.2s6.3-1.4,6.9,0.1S104.4,51.1,101.3,52.6z M117.7,26.1c0.4-1.2,3-1.4,5.9-0.5s4.9,2.5,4.5,3.7s-3,1.4-5.9,0.5
			S117.4,27.3,117.7,26.1z M126.9,69.5c-3.9,0-7.1-1.5-7.1-3.3s3.2-3.3,7.1-3.3s7.1,1.5,7.1,3.3S130.9,69.5,126.9,69.5z M147,51.7
			c-2.9,0-5.3-1.1-5.3-2.4s2.4-2.4,5.3-2.4s5.3,1.1,5.3,2.4S149.9,51.7,147,51.7z M176.4,62.9c-1.6,3.1-4,5-5.5,4.2
			s-1.3-3.8,0.3-6.9s4-5,5.5-4.2S178,59.8,176.4,62.9z"/>
		<g>
			<g>
				<defs>
					<path id="SVGID_1_" d="M31.1,131.6c0,0.4,0,0.7,0.1,1.1c2,29.5,37.6,39.3,81,39.3s78.6-9.8,80.7-39.3c0.1-0.4,0.1-0.7,0.1-1.1
						l0,0c0-0.2,0-0.3,0-0.5c0-0.4,0-0.8,0-1.1h-0.2c-1.1-4.3-6.6-7.6-13.2-7.6H44.5c-6.5,0-12,3.3-13.2,7.6h-0.2c0,0.4,0,0.8,0,1.1
						C31.1,131.3,31.1,131.4,31.1,131.6z"/>
				</defs>
				<use xlink:href="#SVGID_1_"  style="overflow:visible;fill:#FFFFFF;"/>
				<clipPath id="SVGID_2_">
					<use xlink:href="#SVGID_1_"  style="overflow:visible;"/>
				</clipPath>
				<g class="st1">
					<polygon class="st0" points="26,162 218,13 242,192 33,189 					"/>
				</g>
			</g>
		</g>
		<path class="st0" d="M179.4,116.8h-138c-3.8,0.4-7.3-2.4-7.7-6.3c-0.4-3.8,2.4-7.3,6.3-7.7c0.5,0,0.9,0,1.4,0h137.9
			c3.8-0.4,7.3,2.4,7.7,6.3s-2.4,7.3-6.3,7.7C180.3,116.8,179.8,116.8,179.4,116.8z"/>
		<g>
			<g>
				<defs>
					<path id="SVGID_3_" d="M179.4,116.8h-138c-3.8,0.4-7.3-2.4-7.7-6.3c-0.4-3.8,2.4-7.3,6.3-7.7c0.5,0,0.9,0,1.4,0h137.9
						c3.8-0.4,7.3,2.4,7.7,6.3s-2.4,7.3-6.3,7.7C180.3,116.8,179.8,116.8,179.4,116.8z"/>
				</defs>
				<use xlink:href="#SVGID_3_"  style="overflow:visible;fill:#FFFFFF;"/>
				<clipPath id="SVGID_4_">
					<use xlink:href="#SVGID_3_"  style="overflow:visible;"/>
				</clipPath>
				<g class="st2">
					<polygon class="st0" points="18,169 210,20 234,199 25,196 					"/>
				</g>
			</g>
		</g>
		<g>
			<g>
				<defs>
					<path id="SVGID_5_" d="M181,97.5H43.1c-3.8-0.4-6.7-3.8-6.3-7.6c0.3-3.4,3-6,6.3-6.3H181c3.8,0.4,6.7,3.8,6.3,7.6
						C187,94.6,184.4,97.2,181,97.5z"/>
				</defs>
				<use xlink:href="#SVGID_5_"  style="overflow:visible;fill:#FFFFFF;"/>
				<clipPath id="SVGID_6_">
					<use xlink:href="#SVGID_5_"  style="overflow:visible;"/>
				</clipPath>
				<g class="st3">
					<polygon class="st0" points="29,160 221,11 245,190 36,187 					"/>
				</g>
			</g>
		</g>
		<path class="st0" d="M180.9,43.1L135,78.7c0,0,36,0.3,45,0.3c3,0,12-3,12-9C192,55,180.9,43.1,180.9,43.1z M176.1,63.1
			c-1.6,2.8-2.4,4.3-5.1,3.9c-1.4-0.2-1.1-4.3,0.5-7.1s3.2-4.4,4.7-3.5S177.7,60.3,176.1,63.1L176.1,63.1z"/>
	</g>
</g>
</svg>
