<?xml version="1.0" encoding="utf-8"?>
<!-- Generator: Adobe Illustrator 23.0.5, SVG Export Plug-In . SVG Version: 6.00 Build 0)  -->
<svg version="1.1" id="Layer_21" xmlns="http://www.w3.org/2000/svg" xmlns:xlink="http://www.w3.org/1999/xlink" x="0px" y="0px"
	 viewBox="0 0 124.3 171.8" style="enable-background:new 0 0 124.3 171.8;" xml:space="preserve">
<style type="text/css">
	.st0{fill:#FFFFFF;}
</style>
<title>oxygen-colour</title>
<path class="st0" d="M49.7,71.3c-5.3-0.1-10.3,2-13.9,5.9c-3.7,4-5.8,9.3-5.6,14.8c-0.2,5.4,1.9,10.7,5.6,14.6
	c7.7,7.8,20.2,7.8,27.9,0c3.7-3.9,5.8-9.2,5.6-14.6c0.2-5.5-1.8-10.8-5.6-14.8C60,73.3,54.9,71.2,49.7,71.3z"/>
<path class="st0" d="M60.2,38.9L60.2,38.9C29.3,38.9,4,54.6,4,73.8V149c0,8.5,1.2,15.5,14.9,15.5h82.5c13.7,0,14.9-7,14.9-15.5V73.8
	C116.3,54.6,91.1,38.9,60.2,38.9z M49.7,128c-10.2,0-18.8-3.5-25.8-10.5c-13.9-14-14.1-36.9-0.2-51c0.1-0.1,0.2-0.2,0.2-0.2
	c7-7,15.6-10.5,25.8-10.5s18.8,3.5,25.8,10.5c13.9,14,14.1,36.9,0.2,51c-0.1,0.1-0.2,0.2-0.2,0.2C68.4,124.5,59.9,128,49.7,128
	L49.7,128z M104.7,152.9H78v-6l12.7-12.1c0.9-0.9,1.5-1.5,1.9-1.8c0.3-0.4,0.8-0.9,1.4-1.7c0.6-0.6,1-1.4,1.3-2.2
	c0.2-0.7,0.4-1.5,0.4-2.3c0.1-1.2-0.4-2.4-1.3-3.2c-0.9-0.8-2.1-1.3-3.3-1.2c-3.2,0-4.9,2-5.3,6l-8.4-1.6c0-3.4,1.5-6.6,4-8.8
	c2.7-2.3,6.1-3.4,9.6-3.3c4,0,7.2,1.1,9.6,3.3c2.5,2.2,3.8,5.5,3.7,8.8c0,2.3-0.6,4.5-1.8,6.4c-1.7,2.5-3.7,4.7-6,6.8l-5.3,5h13.4
	v7.9H104.7z"/>
<rect x="84.1" y="15.1" class="st0" width="5.3" height="15.5"/>
<rect x="44.1" y="16.6" class="st0" width="31.5" height="14.4"/>
<rect x="54" y="7" class="st0" width="11.8" height="12"/>
<rect x="71.7" y="20.2" class="st0" width="17.3" height="4.8"/>
<rect x="52.4" y="24.6" class="st0" width="15.8" height="16"/>
</svg>
