<?xml version="1.0" encoding="utf-8"?>
<!-- Generator: Adobe Illustrator 23.0.5, SVG Export Plug-In . SVG Version: 6.00 Build 0)  -->
<svg version="1.1" id="Layer_22" xmlns="http://www.w3.org/2000/svg" xmlns:xlink="http://www.w3.org/1999/xlink" x="0px" y="0px"
	 viewBox="0 0 188.1 184.6" style="enable-background:new 0 0 188.1 184.6;" xml:space="preserve">
<style type="text/css">
	.st0{fill:#FFFFFF;}
</style>
<title>stress-colour</title>
<g id="layer1" transform="translate(0,-642.36218)">
	<path id="path3960" class="st0" d="M107.7,801.9c3.1-0.5,4.7-1,6.8-2.1c3.9-2,6.8-6,7-9.7c0.1-1.5,0-1.9-0.8-4.4
		c-0.9-2.7-2.5-6.7-4.2-10.5c-0.5-1-0.8-1.9-0.8-2c0.1-0.2,1.7,1.8,3.1,4c2,3,3.4,6,4.4,9.3l0.9,2.9l1.6,0.7c3.1,1.4,5.3,1.9,9.2,2
		c3.3,0.1,3.7,0.1,5.7-0.5c3.8-1,6.6-2.8,9.2-5.7c1.8-2.1,2.6-3.4,3.7-6.1c1.2-3.1,1.8-4.1,3.2-5.7c1.5-1.7,3-2.9,6.7-5
		c6.3-3.8,8.4-5.8,10-9.7c1.2-2.8,1.4-4,1.4-8.3c0-4.5-0.3-6.5-1.7-10.9c-1.2-3.8-3.4-8.3-4.9-10.1c-0.6-0.7-1.6-0.8-2.3-0.3
		c-0.7,0.5-1.7,2.3-2.8,5.1c-2.4,6.1-7.3,17.4-7.1,16.5c0.1-0.3,0.7-3.1,1.4-6.4c1.6-7.2,1.8-9.2,1.6-12.8
		c-0.2-5.9-1.7-10.5-5.5-17.3c-2.5-4.6-4.6-6.8-7.5-8.3c-2.4-1.2-4.5-1.7-7.1-1.8l-2.2,0l-0.3,1c-0.2,0.6-0.4,2.1-0.6,3.5
		c-0.5,3.6-0.3,6.3,0.6,10.4c1,4.1,1.1,6,0.7,7.7c-0.3,1.2-1.6,3.2-1.9,2.9c-0.1-0.1,0-1,0.2-2c0.5-2.7,0.4-3.7-0.7-8.4
		c-0.5-2.3-1-5-1.1-6c-0.2-3,0.3-7.1,1.8-13.7c0.7-3.2,0.7-4.1-0.2-6.1c-1-2.2-3.8-4.9-7-6.6c-4.1-2.2-10-3.3-13.3-2.4
		c-4.5,1.2-7.5,4.4-12.7,14.1c-4.4,8.1-7,18.6-6.8,27.1c0.1,3.2,0.1,3.3-0.2,2.4c-1.2-4.3-1.4-7.7-0.7-12.4c1-6.4,2.3-10.8,5.1-16.7
		c2.6-5.4,3-6.8,2.9-9.4c-0.2-4.5-2.5-6.9-8.7-9c-9.4-3.2-20.6-0.5-23.4,5.8c-1.1,2.3-1.2,3.6-1.4,11.9c-0.3,12.2-0.5,14.8-1.2,17
		c-0.9,3-1.9,4.9-3,5.7c-0.5,0.4-1.2,0.6-1.4,0.6c-0.5,0-0.5,0,0.2-1c1.7-2.5,2.7-8,3-18.1l0.1-4l-0.9-1.1
		c-3.2-3.7-10.6-5.8-15.7-4.4c-3,0.8-5.6,3.1-7.2,6.4c-2.3,4.6-2.7,9.1-1.7,19.4c0.5,4.8,0.5,5.5,0.2,6c-0.4,0.6-0.4,0.6-2.3,0.2
		c-0.8-0.2-2.2-0.3-3.1-0.3c-0.9,0-1.7-0.1-1.7-0.2c-0.1-0.1,0.3-0.4,0.8-0.5c0.8-0.3,1.4-0.5,3.7-1c0.5-0.1,0.5-0.2,0.3-2.1
		c-0.1-1.7-0.2-2.1-0.6-2.5c-1-1-3.9-1.3-5.3-0.6c-1.2,0.6-3,2.7-3.8,4.4c-1.1,2.4-1.4,4-1.2,6.8c0.1,2.9,0.6,4.5,3,9.9
		c4.3,9.9,5.1,14.8,3.1,19.2c-0.3,0.7-1,1.7-1.4,2c-0.7,0.6-2.1,1.2-2.4,0.9c-0.1-0.1,0.2-0.5,0.5-0.9c3.1-3.8,2.6-9.5-1.9-19.6
		l-1.4-3.2l-1.7-0.3c-3.7-0.6-7-2.4-9.1-4.9c-1.2-1.4-1.7-2.5-2.2-4.4l-0.4-1.4l-1.4,2.3c-2.7,4.4-4.3,8.1-5.1,11.1
		c-0.2,0.8-0.4,2.5-0.5,3.9c-0.1,2.3-0.1,2.7,0.5,4.3c0.9,2.9,2.8,5.7,5.4,7.9c0.5,0.5,1.1,0.8,1.2,0.8c0.1,0,0.5-0.4,0.8-0.9
		c0.3-0.5,1.2-1.4,1.9-1.9c1.3-1.1,3.7-2.7,3.7-2.5c0,0.1-0.5,0.8-1.1,1.6c-2.8,3.5-3.7,5.6-3.9,8.5c-0.3,5.8,3.5,11.8,8.7,13.5
		c1.2,0.4,1.8,0.5,3.7,0.4c3.9-0.2,6-1.4,10.3-6c1.7-1.7,3-3.1,3-3c0,0.1-0.2,0.7-0.5,1.4c-0.6,1.7-1.6,3.5-2.9,5.3l-1.1,1.5
		l0.7,2.2c1.6,5.2,4.2,8.1,8.7,9.7c2.8,1,5.1,1.3,9.3,1.1c4.5-0.2,7.1-0.6,7-1.1c-0.5-2-0.1-8,0.6-10.8l0.2-0.9l0.2,0.7
		c0.1,0.4,0.3,2.6,0.5,4.9c0.2,2.3,0.5,4.8,0.7,5.5c0.8,3.4,3.3,6.5,6.6,8.4c2.9,1.6,5.5,2.3,8.9,2.3c1.5,0,2.8,0,2.9-0.1
		c0.1-0.1-0.1-0.8-0.4-1.5c-0.9-2.4-1.2-4.3-1.2-9.9c-0.1-5.9-0.2-6,1.3,1.3c0.9,4.7,1.8,7.5,2.7,9c1.8,2.9,5.9,5.3,11,6.3
		C98.7,802.5,104.8,802.4,107.7,801.9L107.7,801.9z M73.7,782c-1.9-3.3-2.9-9.4-2.3-14.1c0.1-1,0.2-1.9,0.2-2
		c-0.3-0.3-3.7-1-5.9-1.3c-5.5-0.6-8.7,0.4-13.3,4.1l-0.7,0.6l0.5-0.8c0.3-0.4,1.2-1.6,2.1-2.7c2.4-2.9,3.1-4.9,2.6-7.6
		c-0.3-1.8-1-3.3-2-4.4c-0.9-1-3.2-2.2-5.1-2.7c-1.8-0.5-4.8-0.3-6.7,0.4c-0.7,0.3-1.4,0.4-1.4,0.4c-0.1-0.1,1.5-1.3,2.7-2
		c0.8-0.4,1.1-0.7,1.2-1.3c0.3-1,0-2.7-0.6-4.1c-0.5-1.2-2.5-3.6-3.8-4.6l-0.6-0.5l0.7,0c0.9,0,2.9,1.1,4.2,2.4
		c1.5,1.4,2.2,3,2.3,5.2l0.1,1.7h0.8c4,0,8,2.7,9.7,6.5c0.7,1.5,0.7,1.7,0.7,3.8c0,1.4-0.1,2.5-0.4,3.2c-0.2,0.6-0.3,1-0.3,1.1
		c0,0,0.6-0.1,1.3-0.3c2-0.6,8.3-0.5,10.7,0.1c1,0.3,1.9,0.5,1.9,0.5c0,0,0.3-0.4,0.5-1c1.4-2.9,3.8-5.5,6.6-7.1l1.5-0.8l-1.5-1.1
		c-3.6-2.7-6.5-8.2-7.5-14.5c-0.3-1.6-0.4-3.4-0.4-6.8c0-5.7,0.5-9.7,2.1-18.3c1.8-9.5,2.5-11.7,3.9-13.1c0.7-0.7,0.7-0.7,0.5-0.1
		c-0.5,2-2.7,12.5-3.3,15.5c-1.2,6.8-1.4,8.5-1.4,14.8c0,6.5,0.2,8.3,1.7,12.7c1.1,3.3,3.6,6.9,5.8,8.4c1.2,0.9,4.2,1.9,6.7,2.4
		c2.1,0.4,6.7,0.4,8.1-0.1c0.5-0.1,1.3-0.8,2.1-1.7c2.3-2.5,3.9-3.5,8.6-5.2c0.8-0.3,2.6-0.8,3.9-1c4.1-0.8,6-2,7.3-4.8
		c1.7-3.6,1.8-6.6,0.3-14.2c-0.5-2.5-0.9-5.6-1-6.9c-0.2-2.6,0-5.9,0.5-7.1c0.3-0.7,0.3-0.6,0.4,1.8c0.3,4.9,1.2,10.4,2.5,15.2
		c1.5,5.6,0.8,10.6-1.9,14.2l-0.8,1.1l2.1,0.3c5.5,0.7,8.7,2.3,10.9,5.3l0.6,0.9l1.6-0.2c3.6-0.3,5.9-1.4,8.2-3.9
		c2.6-2.8,4-6,5-11.7c0.3-1.7,0.7-4.4,0.8-6l0.3-3l0.3,1c0.2,0.7,0.3,2.1,0.3,4.1c-0.1,9.7-3.6,17.5-9,20.3
		c-1.2,0.6-3.6,1.3-5.5,1.7c-0.7,0.1-0.8,0.2-0.7,0.6c0.1,0.3,0.3,1.3,0.5,2.2c0.3,1.3,0.4,3.6,0.5,9.4c0.2,7.6,0.4,10,1.1,11.3
		c0.1,0.3,0.2,0.5,0.1,0.6c-0.2,0.2-0.8-0.7-1.6-2.4c-1-2.1-1.2-3.3-1.5-10.8c-0.3-7.3-0.8-9.9-2.5-12.5c-1.6-2.3-3.9-3.6-8.2-4.4
		c-3-0.5-9.2-0.4-11.8,0.3c-4.3,1.2-6.7,2.5-9,4.8c-3.2,3.3-4.7,7.7-3.9,11.8c0.6,3,3.4,8.2,6.8,12.7c2.1,2.8,2.2,3,1.6,2.6
		c-0.3-0.2-1.9-1.8-3.7-3.7c-2.5-2.7-3.4-3.9-4.5-5.7c-1.4-2.4-2.3-4.9-2.5-6.9c-0.2-1.5,0.2-4.3,0.7-6.1c0.2-0.7,0.4-1.3,0.4-1.3
		c0,0-1.4,0-3.2,0c-2.2,0-3.7-0.1-4.8-0.4c-2.2-0.5-3.3-0.5-5.1,0.3c-4.4,1.9-6.5,4.4-7.8,9c-0.3,1-0.5,2.5-0.6,4
		c-0.1,2.8,0.2,9.2,0.7,11.4c0.2,0.8,0.3,1.5,0.2,1.6C74.3,782.9,74,782.5,73.7,782L73.7,782z M148.9,764.9c-0.8-0.2-2.1-0.6-2.9-1
		c-1.4-0.6-5.1-2.7-5.1-2.9c0,0,1.1,0.3,2.4,0.7c4.5,1.4,7.9,1.6,11.3,0.6c4.1-1.2,6.9-3.6,11.5-9.5c1.4-1.8,2.6-3.4,2.7-3.5
		c0.4-0.5-2.7,6-3.6,7.4c-2.4,3.9-5.7,6.7-9.4,7.9C154,765.1,150.7,765.3,148.9,764.9z M58.2,745.4c-4.7-3.8-7.8-7.6-9.6-11.7
		c-1.2-2.8-1.5-4.5-1.4-7.8c0.1-3.2,0.5-4.9,2.3-9.3c1-2.5,1.4-4,2.2-7.6c0.1-0.5,0.1-0.5,0.5,0.3c0.7,1.6,0.5,3.9-0.5,6.9
		c-2.3,6.9-2.7,10.1-1.9,13.6c1.1,4.9,4.4,9.7,10.1,14.9c1,0.9,1.7,1.7,1.7,1.8c0,0.3-0.4,0.8-0.7,0.8
		C60.9,747.5,59.6,746.5,58.2,745.4L58.2,745.4z M175.8,733.8c1.4-5.3,0.3-10.1-3-13.1l-0.9-0.8l-0.8,0.8c-1.3,1.3-2.9,1.4-5.9,0.3
		l-1.6-0.5l2.7-0.1c3.2-0.1,3.4-0.2,3.7-2.1c0.3-1.6,0.1-5.4-0.4-7.1c-0.4-1.3-1.7-3-2.8-3.6c-1.2-0.7-4.2-1.6-5.1-1.6
		c-0.7,0-0.9,0.1-1.5,1.1c-0.8,1.4-2,2.2-4.4,3.1c-1,0.4-1.8,0.7-1.8,0.8s0.6,1.1,1.2,2.3s1.6,2.8,2,3.7c0.4,0.9,0.8,1.6,0.8,1.7
		c0,0,0.6-0.3,1.3-0.7c0.7-0.4,1.4-0.8,1.5-0.8c0.1,0,0.4-0.1,0.6-0.2c0.2-0.1-0.1,0.5-0.7,1.4c-0.6,0.8-1.1,1.8-1.2,2.1
		c-0.2,0.8,0,2,0.6,4.3c0.3,1.1,0.7,3,0.8,4.2c0.4,3.5,0.3,3.4,1.1,2c1.6-2.8,2.6-3.8,4.3-4.1c2.3-0.4,4.8,2.5,7.1,8.2l0.8,2
		l0.4-0.8C175.2,735.8,175.5,734.7,175.8,733.8L175.8,733.8z M26.8,734.6c-0.8-2.3-1-6.8-0.4-9.5c0.9-3.9,3.3-7.6,6-8.9
		c1.1-0.5,1.5-0.6,3.3-0.6c1.2,0,2.4,0.1,2.7,0.2l0.6,0.2l-0.1-3.9c-0.1-7.5,0.9-12,3.6-15.7l1-1.4l-1-0.4c-1.2-0.5-2.5-1.5-2.7-1.9
		c-0.1-0.2-0.1-0.4-0.1-0.4c0,0,1.4,0.2,2.9,0.4l2.9,0.5l1.4-0.8c0.8-0.5,2-1,2.7-1.2c1.7-0.4,6.5-0.4,8.3,0
		c1.3,0.3,1.3,0.3,1.6-0.2c0.9-1.3-0.2-2.8-2.4-3.4c-0.7-0.2-2.2-0.6-3.2-0.8s-2.9-1.1-4.3-1.7c-2-1-2.9-1.3-4.8-1.7
		c-5.4-1-8.5-0.3-11.2,2.5c-1.7,1.7-2.8,3.8-4.1,7.7c-2.2,6.5-3,7.5-8.1,10.2c-3.7,1.9-5,3.1-5.9,5.2c-0.8,1.8-1.1,3.2-1.1,5.5
		c0,1.7,0.5,6,0.7,6.2c0,0,0.3-0.5,0.6-1.2c0.3-0.7,1.2-2.6,2.1-4.1c1.1-2,1.5-2.7,1.6-2.3c0.1,0.6-0.7,3.4-1.4,4.9
		c-0.8,1.7-1.5,4.1-1.8,6c-0.5,4.1,1.2,7.7,4.7,9.7c1.3,0.8,4,1.7,5,1.7C26.8,734.9,26.9,734.9,26.8,734.6L26.8,734.6z M24.8,706.5
		c4.1-1.5,4.5-1.9,4.8-5.3c0.1-2,0.3-2.5,0.9-3.8c0.4-0.8,0.8-1.5,0.8-1.5c0,0,0,1.9,0,4.3c0,4,0,4.3-0.4,4.9
		c-1.1,1.7-3.2,2.4-6.8,2.3l-2,0L24.8,706.5L24.8,706.5z M155.6,709.7c2.7-1.7,3.4-2.9,3.2-5.6c-0.2-2.8-1.8-5.3-4.3-6.6
		c-1.2-0.6-5-1.4-6.5-1.4c-0.9,0-0.9,0-1,0.8c-0.1,0.5-0.1,1.8,0,3l0.1,2.2l-0.7-1.1c-1.4-2.3-2-5.2-1.3-6.6
		c0.3-0.6,2.6-2.4,2.8-2.2c0.1,0.1,0,0.5-0.1,0.9c-0.1,0.4-0.2,0.8-0.2,0.8c0,0,1.2,0.3,2.7,0.6c1.4,0.3,2.7,0.5,2.7,0.5
		c0.2-0.2-0.4-2.8-0.8-3.6c-0.9-1.8-3-3.5-6.5-5c-1.7-0.7-5.8-1.9-12.1-3.3c-2.7-0.6-5-1.2-5.1-1.3c-0.1-0.1,1.9-0.1,4.4-0.1
		c3.6,0,4.5-0.1,4.5-0.3c0-0.2-0.3-1-0.7-1.9c-1.3-2.8-3.7-4.9-6.7-5.9c-1.7-0.6-4.7-0.8-6.6-0.6c-1.2,0.1-1.4,0.2-1.3,0.5
		c0.1,0.2,0.2,1,0.3,1.8c0.1,1.3,0.1,1.4,0.7,1.5c0.7,0.2,5.8,2.3,6.6,2.7l0.5,0.3l-0.5-0.1c-2.6-0.6-7.8-1.2-9.7-1.2
		c-5.1,0-10.3,1.5-12.8,3.7l-0.6,0.6l-0.9-1.6c-0.5-0.9-1.3-2.4-1.8-3.4l-0.9-1.8l1.8,2c1,1.1,1.9,2,2.1,1.9
		c0.1-0.1,0.7-0.5,1.3-0.9c1.9-1.5,6.1-2.6,9.7-2.6c2.3,0,2.4-0.1,2.2-1.5c-0.4-2.5-6.3-6.2-11.4-7.2c-2.9-0.6-7.4-0.4-9.8,0.5
		c-1.8,0.6-4.2,1.9-4.6,2.5c-0.1,0.2-0.3,0.7-0.3,1.1c0,0.7,0,0.7,1,0.9c2.3,0.4,3.3,0.7,3.3,0.9c0,0.1-2.4,0.2-5.9,0.2
		c-4.3,0-5.9-0.1-5.8-0.3c0.3-0.5,2-1.1,3.6-1.2c1.6-0.1,1.7-0.2,1.7-0.7c0-0.7-1.1-1.5-2.9-2.2c-1.7-0.7-5.7-0.7-7.7-0.1
		c-1.9,0.6-3.6,1.4-3.9,2.1c-0.4,0.6-0.2,1,0.6,2.1c0.5,0.7,0.5,1.2-0.1,1.9c-0.4,0.5-1,0.7-3.2,1.2c-1.5,0.3-2.8,0.6-3,0.5
		c-0.1,0,0.6-0.6,1.7-1.1c2.8-1.6,2.8-1.5,2.3-2.3c-0.2-0.4-0.5-0.9-0.7-1.3c-0.2-0.6-0.3-0.6-1.8-0.6c-2.5,0-4.8,1.1-6.6,3.3
		c-0.9,1.1-1.1,1.5-0.6,1.9c0.2,0.1,0.6,0.9,0.9,1.7c0.8,2,1,4.5,0.3,6.7c-0.2,0.9-0.5,1.6-0.5,1.6c0,0-0.1-0.9-0.1-1.9
		c0-3.5-1-6-2.6-7.1c-0.5-0.3-1.7-0.8-2.7-1.1c-3.3-0.9-7.7-0.2-9.4,1.5c-1.3,1.3-1.3,3.3-0.1,4.7c0.6,0.8,0.8,0.8,4.3,1.7
		c2.5,0.6,4.7,1.8,5.7,2.9c0.7,0.8,0.8,1.1,0.8,2.1c0,0.6-0.1,1.5-0.3,1.8c-0.2,0.4-0.3,0.7-0.3,0.7c0,0,0.7,0.3,1.4,0.7
		c0.7,0.4,1.9,1.1,2.5,1.5c0.6,0.5,1.2,0.9,1.2,0.9c0,0,0.1-1,0.2-2.2c0.3-5.2,1.5-8.3,3.9-10.8c2.3-2.3,5.5-3.8,9.9-4.6
		c2.6-0.5,8.2-0.4,11.1,0.2c4.3,0.9,8.1,2.8,10.4,5.2c1.3,1.4,2.5,3.8,2.7,5.4c0.1,0.6,0.2,1.1,0.2,1.1c0,0,1-1,2.2-2.2
		c3.6-3.7,5.9-4.9,10.3-5c2.2-0.1,3.1,0,4.7,0.4c9,2.2,15.5,7.8,15.9,13.7c0.1,1.3,0,2.1-0.4,3.8l-0.5,2.1l2,0.1
		c5.4,0.4,10.7,3.1,13.5,7c0.5,0.7,1,1.3,1.1,1.3C154.1,710.6,154.8,710.2,155.6,709.7L155.6,709.7z"/>
</g>
</svg>
