<?xml version="1.0" encoding="utf-8"?>
<!-- Generator: Adobe Illustrator 23.0.5, SVG Export Plug-In . SVG Version: 6.00 Build 0)  -->
<svg version="1.1" id="Layer_1" xmlns="http://www.w3.org/2000/svg" xmlns:xlink="http://www.w3.org/1999/xlink" x="0px" y="0px"
	 viewBox="0 0 193.5 162.2" style="enable-background:new 0 0 193.5 162.2;" xml:space="preserve">
<style type="text/css">
	.st0{fill:#FFFFFF;}
	.st1{clip-path:url(#SVGID_2_);}
	.st2{fill:#BDCCD4;}
</style>
<title>thirst-colour</title>
<g>
	<g id="Layer_19">
		<path class="st0" d="M148.1,12.6H43.5c-4.6,0-2.3,3.3-2.3,7.4l13.9,124.2c0,4.1,3.8,7.4,8.3,7.4h64.7c4.6,0,8.3-3.3,8.3-7.4
			L150.4,20C150.4,15.9,152.6,12.6,148.1,12.6z M98.1,120.9c-13.2,0-23.9-13.9-23.9-31s23.9-53.1,23.9-53.1s23.9,36,23.9,53.1
			S111.3,120.9,98.1,120.9z"/>
		<g>
			<defs>
				<path id="SVGID_1_" d="M148.1,12.6H43.5c-4.6,0-2.3,3.3-2.3,7.4l13.9,124.2c0,4.1,3.8,7.4,8.3,7.4h64.7c4.6,0,8.3-3.3,8.3-7.4
					L150.4,20C150.4,15.9,152.6,12.6,148.1,12.6z M98.1,120.9c-13.2,0-23.9-13.9-23.9-31s23.9-53.1,23.9-53.1s23.9,36,23.9,53.1
					S111.3,120.9,98.1,120.9z"/>
			</defs>
			<clipPath id="SVGID_2_">
				<use xlink:href="#SVGID_1_"  style="overflow:visible;"/>
			</clipPath>
			<g class="st1">
				<polygon class="st2" points="11.4,133.9 165.2,14.2 184.4,158 17,155.6 				"/>
			</g>
		</g>
	</g>
</g>
</svg>
